<?xml version="1.0" encoding="UTF-8" standalone="no"?>
<!-- Created with Inkscape (http://www.inkscape.org/) -->

<svg
   version="1.1"
   id="svg2"
   width="793.70135"
   height="566.92932"
   viewBox="0 0 793.70135 566.92932"
   sodipodi:docname="20240119_quatre_fevrier_logo_def.ai"
   xmlns:inkscape="http://www.inkscape.org/namespaces/inkscape"
   xmlns:sodipodi="http://sodipodi.sourceforge.net/DTD/sodipodi-0.dtd"
   xmlns="http://www.w3.org/2000/svg"
   xmlns:svg="http://www.w3.org/2000/svg">
  <defs
     id="defs6">
    <clipPath
       clipPathUnits="userSpaceOnUse"
       id="clipPath20">
      <path
         d="M 0,425.197 H 595.276 V 0 H 0 Z"
         id="path18" />
    </clipPath>
  </defs>
  <sodipodi:namedview
     id="namedview4"
     pagecolor="#ffffff"
     bordercolor="#000000"
     borderopacity="0.25"
     inkscape:showpageshadow="2"
     inkscape:pageopacity="0.0"
     inkscape:pagecheckerboard="0"
     inkscape:deskcolor="#d1d1d1" />
  <g
     id="g8"
     inkscape:groupmode="layer"
     inkscape:label="20240119_quatre_fevrier_logo_def"
     transform="matrix(1.3333333,0,0,-1.3333333,0,566.92933)">
    <path
       d="M 1.051,0 H 595.275 V 0.037 H 1.051 Z"
       style="fill:white;fill-opacity:1;fill-rule:nonzero;stroke:none"
       id="path10" />
    <path
       d="M 178.557,211.808 H 290.98 v 29.177 H 178.557 Z"
       style="fill:white;fill-opacity:1;fill-rule:nonzero;stroke:none"
       id="path12" />
    <g
       id="g14">
      <g
         id="g16"
         clip-path="url(#clipPath20)">
        <g
           id="g22"
           transform="translate(178.5574,167.02)">
          <path
             d="m 0,0 v -27.444 c 0,-9.221 11.708,-13.174 17.297,-5.84 L 35.21,-9.78 C 39.907,-3.617 47.211,0 54.959,0 h 57.464 V 30.168 H 0 Z"
             style="fill:white;fill-opacity:1;fill-rule:nonzero;stroke:none"
             id="path24" />
        </g>
        <g
           id="g26"
           transform="translate(438.2769,228.7158)">
          <path
             d="m 0,0 c 0.968,4.022 4.366,7.009 8.446,7.009 4.08,0 7.478,-2.987 8.446,-7.009 H 8.423 Z m 16.758,-5.072 h 6.341 c 0.159,0.899 0.254,1.821 0.254,2.767 0,0.785 -0.075,1.551 -0.186,2.305 C 22.085,7.379 15.916,13.041 8.446,13.041 0.976,13.041 -5.192,7.379 -6.275,0 c -0.111,-0.754 -0.186,-1.52 -0.186,-2.305 0,-0.946 0.095,-1.868 0.254,-2.767 0.164,-0.925 0.412,-1.817 0.729,-2.676 2.094,-5.673 7.35,-9.729 13.559,-9.885 0.113,-0.013 0.225,-0.034 0.342,-0.034 0.101,0 0.197,0.02 0.295,0.029 6.25,0.117 11.548,4.188 13.653,9.89 h -6.852 c -1.59,-2.336 -4.156,-3.872 -7.073,-3.872 -2.917,0 -5.483,1.536 -7.072,3.872 -0.547,0.804 -0.955,1.707 -1.239,2.676 h 8.288 z"
             style="fill:white;fill-opacity:1;fill-rule:nonzero;stroke:none"
             id="path28" />
        </g>
        <g
           id="g30"
           transform="translate(383.707,217.0705)">
          <path
             d="m 0,0 c -4.938,0 -8.974,4.321 -8.974,9.258 0,5.174 4.036,9.402 8.974,9.402 5.459,0 9.164,-4.274 9.164,-9.402 C 9.164,4.272 5.128,0 0,0 M 10.065,23.915 H 9.569 v -3.677 c -2.279,2.989 -5.681,4.468 -9.737,4.468 -8.6,0 -15.299,-6.54 -15.299,-15.878 0,-8.44 6.963,-14.877 15.51,-14.877 3.944,0 7.415,1.66 9.526,4.786 V -5.31 h 0.496 5.487 v 29.225 z"
             style="fill:white;fill-opacity:1;fill-rule:nonzero;stroke:none"
             id="path32" />
        </g>
        <g
           id="g34"
           transform="translate(423.9045,238.2389)">
          <path
             d="M 0,0 V 2.747 H -0.389 -5.506 -5.984 V -26.478 H -5.506 -0.019 0 v 15.983 c 0.101,4.719 2.508,7.514 7.154,7.671 V 3.061 C 3.556,2.866 1.351,1.739 0,0"
             style="fill:white;fill-opacity:1;fill-rule:nonzero;stroke:none"
             id="path36" />
        </g>
        <g
           id="g38"
           transform="translate(415.4583,240.9855)">
          <path
             d="m 0,0 h -4.589 v 9.813 h -0.212 -5.487 -0.284 V 0 h 0.003 v -5.255 h -0.003 v -23.97 h 0.284 5.487 0.212 v 23.97 H 0 Z"
             style="fill:white;fill-opacity:1;fill-rule:nonzero;stroke:none"
             id="path40" />
        </g>
        <g
           id="g42"
           transform="translate(393.9675,193.9981)">
          <path
             d="M 0,0 V 2.831 H -0.401 -5.676 -6.167 V -27.292 H -5.676 -0.02 0 v 16.474 c 0.104,4.864 2.585,7.745 7.374,7.907 V 3.155 C 3.665,2.954 1.392,1.792 0,0"
             style="fill:white;fill-opacity:1;fill-rule:nonzero;stroke:none"
             id="path44" />
        </g>
        <g
           id="g46"
           transform="translate(420.4859,184.1825)">
          <path
             d="m 0,0 c 0.998,4.146 4.5,7.225 8.706,7.225 4.205,0 7.708,-3.079 8.705,-7.225 H 8.682 Z m 17.273,-5.228 h 6.535 c 0.165,0.927 0.263,1.877 0.263,2.852 0,0.81 -0.078,1.599 -0.192,2.376 C 22.763,7.606 16.405,13.442 8.706,13.442 1.006,13.442 -5.352,7.606 -6.468,0 -6.582,-0.777 -6.66,-1.566 -6.66,-2.376 c 0,-0.975 0.099,-1.925 0.263,-2.852 0.169,-0.953 0.424,-1.873 0.75,-2.758 2.159,-5.847 7.576,-10.028 13.976,-10.188 0.117,-0.014 0.232,-0.036 0.353,-0.036 0.104,0 0.203,0.021 0.304,0.031 6.442,0.119 11.903,4.316 14.072,10.193 h -7.063 c -1.638,-2.408 -4.283,-3.991 -7.289,-3.991 -3.007,0 -5.652,1.583 -7.29,3.991 -0.564,0.828 -0.984,1.76 -1.277,2.758 h 8.543 z"
             style="fill:white;fill-opacity:1;fill-rule:nonzero;stroke:none"
             id="path48" />
        </g>
        <g
           id="g50"
           transform="translate(333.7318,184.4955)">
          <path
             d="m 0,0 c 0.998,4.146 4.5,7.225 8.706,7.225 4.205,0 7.708,-3.079 8.705,-7.225 H 8.682 Z m 17.273,-5.228 h 6.535 c 0.165,0.927 0.263,1.877 0.263,2.852 0,0.81 -0.078,1.599 -0.192,2.376 C 22.763,7.606 16.405,13.442 8.706,13.442 1.006,13.442 -5.352,7.606 -6.468,0 -6.582,-0.777 -6.66,-1.566 -6.66,-2.376 c 0,-0.975 0.099,-1.925 0.263,-2.852 0.169,-0.953 0.424,-1.873 0.75,-2.758 2.159,-5.847 7.576,-10.028 13.976,-10.188 0.117,-0.014 0.232,-0.036 0.353,-0.036 0.104,0 0.203,0.021 0.304,0.031 6.442,0.119 11.903,4.316 14.072,10.193 h -7.063 c -1.638,-2.408 -4.283,-3.991 -7.289,-3.991 -3.007,0 -5.652,1.583 -7.29,3.991 -0.564,0.828 -0.984,1.76 -1.277,2.758 h 8.543 z"
             style="fill:white;fill-opacity:1;fill-rule:nonzero;stroke:none"
             id="path52" />
        </g>
        <g
           id="g54"
           transform="translate(453.7783,193.9981)">
          <path
             d="M 0,0 V 2.831 H -0.401 -5.676 -6.167 V -27.292 H -5.676 -0.02 0 v 16.474 c 0.104,4.864 2.585,7.745 7.374,7.907 V 3.155 C 3.665,2.954 1.392,1.792 0,0"
             style="fill:white;fill-opacity:1;fill-rule:nonzero;stroke:none"
             id="path56" />
        </g>
        <g
           id="g58"
           transform="translate(378.8883,197.1216)">
          <path
             d="m 0,0 -7.803,-21.29 h -0.02 -0.092 -0.02 L -15.709,0 h -7.082 l 11.957,-30.102 h 1.858 2.214 1.858 L 7.082,0 Z"
             style="fill:white;fill-opacity:1;fill-rule:nonzero;stroke:none"
             id="path60" />
        </g>
        <g
           id="g62"
           transform="translate(404.7744,196.9425)">
          <path
             d="M 0,0 V -30.236 H 0.293 5.949 6.167 V 0 Z"
             style="fill:white;fill-opacity:1;fill-rule:nonzero;stroke:none"
             id="path64" />
        </g>
        <path
           d="m 410.942,205.938 h -6.167 v -6.012 h 6.167 z"
           style="fill:white;fill-opacity:1;fill-rule:nonzero;stroke:none"
           id="path66" />
        <path
           d="m 344.964,205.938 h -6.167 v -6.012 h 6.167 z"
           style="fill:white;fill-opacity:1;fill-rule:nonzero;stroke:none"
           id="path68" />
        <g
           id="g70"
           transform="translate(322.848,225.9006)">
          <path
             d="m 0,0 -3.336,-3.844 4.107,-3.57 c -1.238,-0.692 -2.645,-1.089 -4.141,-1.089 -4.92,0 -8.908,4.241 -8.908,9.472 0,5.231 3.988,9.471 8.908,9.471 4.92,0 8.908,-4.24 8.908,-9.471 0,-1.79 -0.475,-3.457 -1.286,-4.884 z m 9.079,-8.2 c 1.9,2.605 2.998,5.766 2.998,9.182 v 0.085 c 0,8.414 -6.334,15.376 -15.413,15.376 -9.078,0 -15.497,-7.047 -15.497,-15.461 V 0.896 c 0,-8.412 6.334,-15.375 15.413,-15.375 3.42,0 6.503,1.026 8.994,2.82 l 3.548,-3.203 3.335,3.758 z"
             style="fill:white;fill-opacity:1;fill-rule:nonzero;stroke:none"
             id="path72" />
        </g>
        <g
           id="g74"
           transform="translate(358.4974,240.9854)">
          <path
             d="m 0,0 v -15.64 c 0,-5.081 -2.327,-8.262 -6.885,-8.262 -4.51,0 -6.551,2.659 -6.551,8.167 V 0 h -6.232 v -16.299 c 0,-0.146 0.015,-0.274 0.018,-0.417 l -0.034,-0.007 c 0,-8.022 4.221,-13.241 11.502,-13.241 0.115,0 0.224,0.009 0.337,0.012 0.121,-0.003 0.241,-0.012 0.362,-0.012 3.852,0 7.175,1.424 8.599,3.903 h 0.105 v -3.164 H 6.234 L 6.234,0 Z"
             style="fill:white;fill-opacity:1;fill-rule:nonzero;stroke:none"
             id="path76" />
        </g>
        <g
           id="g78"
           transform="translate(324.7,191.0451)">
          <path
             d="m 0,0 v 6.132 h -19.96 l -0.003,-30.157 h 0.285 5.505 0.212 v 11.822 h 12.204 v 6.131 H -13.961 V 0 Z"
             style="fill:white;fill-opacity:1;fill-rule:nonzero;stroke:none"
             id="path80" />
        </g>
      </g>
    </g>
  </g>
</svg>
